<svg width="3" height="16" viewBox="0 0 3 16" fill="none" xmlns="http://www.w3.org/2000/svg">
<path fill-rule="evenodd" clip-rule="evenodd" d="M1.63636 1.5C1.56105 1.5 1.5 1.56105 1.5 1.63636C1.5 1.71168 1.56105 1.77273 1.63636 1.77273C1.71168 1.77273 1.77273 1.71168 1.77273 1.63636C1.77273 1.56105 1.71168 1.5 1.63636 1.5ZM0.500001 1.63636C0.500001 1.00877 1.00877 0.5 1.63636 0.5C2.26396 0.5 2.77273 1.00877 2.77273 1.63636C2.77273 2.26396 2.26396 2.77273 1.63636 2.77273C1.00877 2.77273 0.500001 2.26396 0.500001 1.63636ZM1.63636 7.86364C1.56105 7.86364 1.5 7.92469 1.5 8C1.5 8.07531 1.56105 8.13636 1.63636 8.13636C1.71168 8.13636 1.77273 8.07531 1.77273 8C1.77273 7.92469 1.71168 7.86364 1.63636 7.86364ZM0.5 8C0.5 7.3724 1.00877 6.86364 1.63636 6.86364C2.26396 6.86364 2.77273 7.3724 2.77273 8C2.77273 8.6276 2.26396 9.13636 1.63636 9.13636C1.00877 9.13636 0.5 8.6276 0.5 8ZM1.63636 14.2273C1.56105 14.2273 1.5 14.2883 1.5 14.3636C1.5 14.4389 1.56105 14.5 1.63636 14.5C1.71167 14.5 1.77273 14.4389 1.77273 14.3636C1.77273 14.2883 1.71168 14.2273 1.63636 14.2273ZM0.5 14.3636C0.5 13.736 1.00877 13.2273 1.63636 13.2273C2.26396 13.2273 2.77273 13.736 2.77273 14.3636C2.77273 14.9912 2.26396 15.5 1.63636 15.5C1.00877 15.5 0.5 14.9912 0.5 14.3636Z" fill="black"/>
</svg>
