<svg width="87" height="15" viewBox="0 0 87 15" fill="none" xmlns="http://www.w3.org/2000/svg">
<path d="M7.94838 0.278719C7.86415 0.10805 7.69034 0 7.50001 0C7.30969 0 7.13587 0.10805 7.05165 0.278719L5.00476 4.42621L0.42816 5.09081C0.239806 5.11816 0.0833166 5.25008 0.0244934 5.43109C-0.0343298 5.6121 0.0147161 5.81081 0.151008 5.94366L3.46277 9.17185L2.68076 13.7306C2.64858 13.9182 2.72569 14.1078 2.87966 14.2196C3.03364 14.3315 3.23778 14.3463 3.40624 14.2577L7.50001 12.1054L11.5938 14.2577C11.7623 14.3463 11.9664 14.3315 12.1204 14.2196C12.2743 14.1078 12.3515 13.9182 12.3193 13.7306L11.5373 9.17185L14.849 5.94366C14.9853 5.81081 15.0344 5.6121 14.9755 5.43109C14.9167 5.25008 14.7602 5.11816 14.5719 5.09081L9.99527 4.42621L7.94838 0.278719Z" fill="black"/>
<path d="M25.9484 0.278719C25.8642 0.10805 25.6903 0 25.5 0C25.3097 0 25.1359 0.10805 25.0516 0.278719L23.0048 4.42621L18.4282 5.09081C18.2398 5.11816 18.0833 5.25008 18.0245 5.43109C17.9657 5.6121 18.0147 5.81081 18.151 5.94366L21.4628 9.17185L20.6808 13.7306C20.6486 13.9182 20.7257 14.1078 20.8797 14.2196C21.0336 14.3315 21.2378 14.3463 21.4062 14.2577L25.5 12.1054L29.5938 14.2577C29.7623 14.3463 29.9664 14.3315 30.1204 14.2196C30.2743 14.1078 30.3515 13.9182 30.3193 13.7306L29.5373 9.17185L32.849 5.94366C32.9853 5.81081 33.0344 5.6121 32.9755 5.43109C32.9167 5.25008 32.7602 5.11816 32.5719 5.09081L27.9953 4.42621L25.9484 0.278719Z" fill="black"/>
<path d="M43.9484 0.278719C43.8642 0.10805 43.6903 0 43.5 0C43.3097 0 43.1359 0.10805 43.0516 0.278719L41.0048 4.42621L36.4282 5.09081C36.2398 5.11816 36.0833 5.25008 36.0245 5.43109C35.9657 5.6121 36.0147 5.81081 36.151 5.94366L39.4628 9.17185L38.6808 13.7306C38.6486 13.9182 38.7257 14.1078 38.8797 14.2196C39.0336 14.3315 39.2378 14.3463 39.4062 14.2577L43.5 12.1054L47.5938 14.2577C47.7623 14.3463 47.9664 14.3315 48.1204 14.2196C48.2743 14.1078 48.3515 13.9182 48.3193 13.7306L47.5373 9.17185L50.849 5.94366C50.9853 5.81081 51.0344 5.6121 50.9755 5.43109C50.9167 5.25008 50.7602 5.11816 50.5719 5.09081L45.9953 4.42621L43.9484 0.278719Z" fill="black"/>
<path d="M61.9484 0.278719C61.8642 0.10805 61.6903 0 61.5 0C61.3097 0 61.1359 0.10805 61.0516 0.278719L59.0048 4.42621L54.4282 5.09081C54.2398 5.11816 54.0833 5.25008 54.0245 5.43109C53.9657 5.6121 54.0147 5.81081 54.151 5.94366L57.4628 9.17185L56.6808 13.7306C56.6486 13.9182 56.7257 14.1078 56.8797 14.2196C57.0336 14.3315 57.2378 14.3463 57.4062 14.2577L61.5 12.1054L65.5938 14.2577C65.7623 14.3463 65.9664 14.3315 66.1204 14.2196C66.2743 14.1078 66.3515 13.9182 66.3193 13.7306L65.5373 9.17185L68.849 5.94366C68.9853 5.81081 69.0344 5.6121 68.9755 5.43109C68.9167 5.25008 68.7602 5.11816 68.5719 5.09081L63.9953 4.42621L61.9484 0.278719Z" fill="black"/>
<path d="M79.9484 0.278719C79.8642 0.10805 79.6903 0 79.5 0C79.3097 0 79.1359 0.10805 79.0516 0.278719L77.0048 4.42621L72.4282 5.09081C72.2398 5.11816 72.0833 5.25008 72.0245 5.43109C71.9657 5.6121 72.0147 5.81081 72.151 5.94366L75.4628 9.17185L74.6808 13.7306C74.6486 13.9182 74.7257 14.1078 74.8797 14.2196C75.0336 14.3315 75.2378 14.3463 75.4062 14.2577L79.5 12.1054L83.5938 14.2577C83.7623 14.3463 83.9664 14.3315 84.1204 14.2196C84.2743 14.1078 84.3515 13.9182 84.3193 13.7306L83.5373 9.17185L86.849 5.94366C86.9853 5.81081 87.0344 5.6121 86.9755 5.43109C86.9167 5.25008 86.7602 5.11816 86.5719 5.09081L81.9953 4.42621L79.9484 0.278719Z" fill="#D1D1D1"/>
</svg>
