<svg width="12" height="12" viewBox="0 0 12 12" fill="none" xmlns="http://www.w3.org/2000/svg">
<path fill-rule="evenodd" clip-rule="evenodd" d="M4.73643 6.70711C5.12695 6.31658 5.12695 5.68342 4.73643 5.29289L1.27823 1.8347C1.12457 1.68103 1.12457 1.4319 1.27823 1.27823C1.4319 1.12457 1.68103 1.12457 1.8347 1.27823L5.29289 4.73643C5.68342 5.12695 6.31658 5.12695 6.70711 4.73643L10.1653 1.27823C10.319 1.12457 10.5681 1.12457 10.7218 1.27823C10.8754 1.4319 10.8754 1.68103 10.7218 1.8347L7.26357 5.29289C6.87305 5.68342 6.87305 6.31658 7.26357 6.70711L10.7218 10.1653C10.8754 10.319 10.8754 10.5681 10.7218 10.7218C10.5681 10.8754 10.319 10.8754 10.1653 10.7218L6.70711 7.26357C6.31658 6.87305 5.68342 6.87305 5.29289 7.26357L1.8347 10.7218C1.68103 10.8754 1.4319 10.8754 1.27823 10.7218C1.12457 10.5681 1.12457 10.319 1.27823 10.1653L4.73643 6.70711Z" fill="#868686" stroke="#B9B9B9"/>
</svg>
